<svg xmlns="http://www.w3.org/2000/svg" xmlns:xlink="http://www.w3.org/1999/xlink" contentStyleType="text/css" data-diagram-type="DESCRIPTION" height="807px" preserveAspectRatio="none" style="width:1224px;height:807px;background:#FFFFFF;" version="1.1" viewBox="0 0 1224 807" width="1224px" zoomAndPan="magnify"><title>AML Detection System - Use Case Diagram</title><defs/><g><g class="title" data-source-line="2"><text fill="#000000" font-family="sans-serif" font-size="14" font-weight="bold" lengthAdjust="spacing" textLength="337.3125" x="436.3438" y="22.9951">AML Detection System - Use Case Diagram</text></g><!--cluster AML System--><g class="cluster" data-entity="AML System" data-source-line="7" data-uid="ent0005" id="cluster_AML System"><rect fill="none" height="687" rx="2.5" ry="2.5" style="stroke:#181818;stroke-width:1;" width="966" x="252" y="98.7969"/><text fill="#000000" font-family="sans-serif" font-size="14" font-weight="bold" lengthAdjust="spacing" textLength="96.8789" x="686.5605" y="113.792">AML System</text></g><!--entity UC_Register--><g class="entity" data-entity="UC_Register" data-source-line="8" data-uid="ent0006" id="entity_UC_Register"><ellipse cx="394.8762" cy="748.6721" fill="#F1F1F1" rx="92.3762" ry="20.8752" style="stroke:#181818;stroke-width:0.5;"/><text fill="#000000" font-family="sans-serif" font-size="14" lengthAdjust="spacing" textLength="159.0996" x="315.3264" y="753.3205">Register &amp; Upload KYC</text></g><!--entity UC_Login--><g class="entity" data-entity="UC_Login" data-source-line="9" data-uid="ent0007" id="entity_UC_Login"><ellipse cx="772.9875" cy="734.5944" fill="#F1F1F1" rx="114.4875" ry="25.2975" style="stroke:#181818;stroke-width:0.5;"/><text fill="#000000" font-family="sans-serif" font-size="14" lengthAdjust="spacing" textLength="207.5527" x="669.2111" y="739.2428">Login with MFA + reCAPTCHA</text></g><!--entity UC_InitiateTx--><g class="entity" data-entity="UC_InitiateTx" data-source-line="10" data-uid="ent0008" id="entity_UC_InitiateTx"><ellipse cx="395.0782" cy="673.6125" fill="#F1F1F1" rx="82.0782" ry="18.8156" style="stroke:#181818;stroke-width:0.5;"/><text fill="#000000" font-family="sans-serif" font-size="14" lengthAdjust="spacing" textLength="135.5498" x="327.3033" y="678.261">Initiate Transaction</text></g><!--entity UC_MonitorTx--><g class="entity" data-entity="UC_MonitorTx" data-source-line="11" data-uid="ent0009" id="entity_UC_MonitorTx"><ellipse cx="394.9304" cy="581.8829" fill="#F1F1F1" rx="93.4304" ry="21.0861" style="stroke:#181818;stroke-width:0.5;"/><text fill="#000000" font-family="sans-serif" font-size="14" lengthAdjust="spacing" textLength="161.4648" x="314.1979" y="586.5314">Transaction Monitoring</text></g><!--entity UC_NLPAnalyze--><g class="entity" data-entity="UC_NLPAnalyze" data-source-line="12" data-uid="ent0010" id="entity_UC_NLPAnalyze"><ellipse cx="394.9924" cy="486.6954" fill="#F1F1F1" rx="97.4924" ry="21.8985" style="stroke:#181818;stroke-width:0.5;"/><text fill="#000000" font-family="sans-serif" font-size="14" lengthAdjust="spacing" textLength="170.5156" x="309.7346" y="491.3438">NLP Analyze Description</text></g><!--entity UC_CreateAlert--><g class="entity" data-entity="UC_CreateAlert" data-source-line="13" data-uid="ent0011" id="entity_UC_CreateAlert"><ellipse cx="395.2306" cy="239.043" fill="#F1F1F1" rx="61.7306" ry="14.7461" style="stroke:#181818;stroke-width:0.5;"/><text fill="#000000" font-family="sans-serif" font-size="14" lengthAdjust="spacing" textLength="84.6016" x="352.9298" y="243.6914">Create Alert</text></g><!--entity UC_Investigate--><g class="entity" data-entity="UC_Investigate" data-source-line="14" data-uid="ent0012" id="entity_UC_Investigate"><ellipse cx="773.1128" cy="160.6194" fill="#F1F1F1" rx="122.1128" ry="26.8226" style="stroke:#181818;stroke-width:0.5;"/><text fill="#000000" font-family="sans-serif" font-size="14" lengthAdjust="spacing" textLength="223.8564" x="661.1846" y="165.2679">Investigate Alert / Manage Case</text></g><!--entity UC_GenerateSAR--><g class="entity" data-entity="UC_GenerateSAR" data-source-line="15" data-uid="ent0013" id="entity_UC_GenerateSAR"><ellipse cx="1114.139" cy="155.8247" fill="#F1F1F1" rx="88.139" ry="20.0278" style="stroke:#181818;stroke-width:0.5;"/><text fill="#000000" font-family="sans-serif" font-size="14" lengthAdjust="spacing" textLength="149.5156" x="1039.3812" y="160.4731">Generate SAR Report</text></g><!--entity UC_ManageRules--><g class="entity" data-entity="UC_ManageRules" data-source-line="16" data-uid="ent0014" id="entity_UC_ManageRules"><ellipse cx="394.9233" cy="161.8815" fill="#F1F1F1" rx="125.9233" ry="27.5847" style="stroke:#181818;stroke-width:0.5;"/><text fill="#000000" font-family="sans-serif" font-size="14" lengthAdjust="spacing" textLength="231.9502" x="278.9482" y="166.53">Create/Update Compliance Rules</text></g><!--entity UC_UpdateKeywords--><g class="entity" data-entity="UC_UpdateKeywords" data-source-line="17" data-uid="ent0015" id="entity_UC_UpdateKeywords"><ellipse cx="394.8074" cy="404.5583" fill="#F1F1F1" rx="111.8074" ry="24.7615" style="stroke:#181818;stroke-width:0.5;"/><text fill="#000000" font-family="sans-serif" font-size="14" lengthAdjust="spacing" textLength="201.7832" x="293.9158" y="409.2068">Update Suspicious Keywords</text></g><!--entity UC_ViewHealth--><g class="entity" data-entity="UC_ViewHealth" data-source-line="18" data-uid="ent0016" id="entity_UC_ViewHealth"><ellipse cx="394.9558" cy="316.588" fill="#F1F1F1" rx="126.9558" ry="27.7912" style="stroke:#181818;stroke-width:0.5;"/><text fill="#000000" font-family="sans-serif" font-size="14" lengthAdjust="spacing" textLength="234.1377" x="277.887" y="321.2365">View System Health &amp; Audit Logs</text></g><!--entity UC_Notifications--><g class="entity" data-entity="UC_Notifications" data-source-line="19" data-uid="ent0017" id="entity_UC_Notifications"><ellipse cx="1113.7611" cy="734.6491" fill="#F1F1F1" rx="87.2611" ry="19.8522" style="stroke:#181818;stroke-width:0.5;"/><text fill="#000000" font-family="sans-serif" font-size="14" lengthAdjust="spacing" textLength="147.5127" x="1040.0047" y="739.2975">Receive Notifications</text></g><!--entity Customer--><g class="entity" data-entity="Customer" data-source-line="4" data-uid="ent0002" id="entity_Customer"><ellipse cx="70.502" cy="719.2969" fill="#F1F1F1" rx="8" ry="8" style="stroke:#181818;stroke-width:0.5;"/><path d="M70.502,727.2969 L70.502,754.2969 M57.502,735.2969 L83.502,735.2969 M70.502,754.2969 L57.502,769.2969 M70.502,754.2969 L83.502,769.2969" fill="none" style="stroke:#181818;stroke-width:0.5;"/><text fill="#000000" font-family="sans-serif" font-size="14" lengthAdjust="spacing" textLength="68.0039" x="36.5" y="783.792">Customer</text></g><!--entity Officer--><g class="entity" data-entity="Officer" data-source-line="5" data-uid="ent0003" id="entity_Officer"><ellipse cx="70.6201" cy="51.2969" fill="#F1F1F1" rx="8" ry="8" style="stroke:#181818;stroke-width:0.5;"/><path d="M70.6201,59.2969 L70.6201,86.2969 M57.6201,67.2969 L83.6201,67.2969 M70.6201,86.2969 L57.6201,101.2969 M70.6201,86.2969 L83.6201,101.2969" fill="none" style="stroke:#181818;stroke-width:0.5;"/><text fill="#000000" font-family="sans-serif" font-size="14" lengthAdjust="spacing" textLength="129.2402" x="6" y="115.792">ComplianceOfficer</text></g><!--entity Admin--><g class="entity" data-entity="Admin" data-source-line="6" data-uid="ent0004" id="entity_Admin"><ellipse cx="70.4321" cy="287.2969" fill="#F1F1F1" rx="8" ry="8" style="stroke:#181818;stroke-width:0.5;"/><path d="M70.4321,295.2969 L70.4321,322.2969 M57.4321,303.2969 L83.4321,303.2969 M70.4321,322.2969 L57.4321,337.2969 M70.4321,322.2969 L83.4321,337.2969" fill="none" style="stroke:#181818;stroke-width:0.5;"/><text fill="#000000" font-family="sans-serif" font-size="14" lengthAdjust="spacing" textLength="44.8643" x="48" y="351.792">Admin</text></g><!--link Customer to UC_Register--><g class="link" data-entity-1="Customer" data-entity-2="UC_Register" data-source-line="22" data-uid="lnk18" id="link_Customer_UC_Register"><path d="M104.8,748.7969 C150.99,748.7969 230.26,748.7969 296.3,748.7969" fill="none" id="Customer-to-UC_Register" style="stroke:#181818;stroke-width:1;"/><polygon fill="#181818" points="302.3,748.7969,293.3,744.7969,297.3,748.7969,293.3,752.7969,302.3,748.7969" style="stroke:#181818;stroke-width:1;"/></g><!--link Customer to UC_Login--><g class="link" data-entity-1="Customer" data-entity-2="UC_Login" data-source-line="23" data-uid="lnk19" id="link_Customer_UC_Login"><path d="M104.54,758.3169 C139,767.7169 194.77,781.4369 244,786.7969 C366.83,800.1669 399.09,799.4469 522,786.7969 C582.08,780.6169 643.2007,767.7077 692.6807,755.6477" fill="none" id="Customer-to-UC_Login" style="stroke:#181818;stroke-width:1;"/><polygon fill="#181818" points="698.51,754.2269,688.8188,752.4719,693.6522,755.4109,690.7132,760.2443,698.51,754.2269" style="stroke:#181818;stroke-width:1;"/></g><!--link Customer to UC_InitiateTx--><g class="link" data-entity-1="Customer" data-entity-2="UC_InitiateTx" data-source-line="24" data-uid="lnk20" id="link_Customer_UC_InitiateTx"><path d="M104.69,739.0369 C122.5,733.9369 144.88,727.7469 165,722.7969 C221.26,708.9669 279.9594,696.548 326.1694,687.188" fill="none" id="Customer-to-UC_InitiateTx" style="stroke:#181818;stroke-width:1;"/><polygon fill="#181818" points="332.05,685.9969,322.435,683.8632,327.1495,686.9895,324.0232,691.704,332.05,685.9969" style="stroke:#181818;stroke-width:1;"/></g><!--link UC_InitiateTx to UC_MonitorTx--><g class="link" data-entity-1="UC_InitiateTx" data-entity-2="UC_MonitorTx" data-source-line="25" data-uid="lnk21" id="link_UC_InitiateTx_UC_MonitorTx"><path d="M395,654.7369 C395,639.6769 395,624.6869 395,609.0869" fill="none" id="UC_InitiateTx-to-UC_MonitorTx" style="stroke:#181818;stroke-width:1;stroke-dasharray:7.0,7.0;"/><polygon fill="#181818" points="395,603.0869,391,612.0869,395,608.0869,399,612.0869,395,603.0869" style="stroke:#181818;stroke-width:1;"/><text fill="#000000" font-family="sans-serif" font-size="13" lengthAdjust="spacing" textLength="69.7798" x="349" y="633.3638">&#171;includes&#187;</text></g><!--link UC_MonitorTx to UC_NLPAnalyze--><g class="link" data-entity-1="UC_MonitorTx" data-entity-2="UC_NLPAnalyze" data-source-line="26" data-uid="lnk22" id="link_UC_MonitorTx_UC_NLPAnalyze"><path d="M395,560.7169 C395,545.2969 395,530.4369 395,514.8169" fill="none" id="UC_MonitorTx-to-UC_NLPAnalyze" style="stroke:#181818;stroke-width:1;stroke-dasharray:7.0,7.0;"/><polygon fill="#181818" points="395,508.8169,391,517.8169,395,513.8169,399,517.8169,395,508.8169" style="stroke:#181818;stroke-width:1;"/><text fill="#000000" font-family="sans-serif" font-size="13" lengthAdjust="spacing" textLength="69.7798" x="349" y="539.3638">&#171;includes&#187;</text></g><!--link UC_MonitorTx to UC_CreateAlert--><g class="link" data-entity-1="UC_MonitorTx" data-entity-2="UC_CreateAlert" data-source-line="27" data-uid="lnk23" id="link_UC_MonitorTx_UC_CreateAlert"><path d="M320.36,569.1369 C292.96,560.9869 263.83,547.6369 244,525.7969 C188.86,465.0569 180,425.5969 201,346.2969 C210.88,308.9669 212.82,293.5769 244,270.7969 C269.75,251.9869 298.2302,244.4403 327.7102,241.0103" fill="none" id="UC_MonitorTx-to-UC_CreateAlert" style="stroke:#181818;stroke-width:1;stroke-dasharray:7.0,7.0;"/><polygon fill="#181818" points="333.67,240.3169,324.268,237.3838,328.7035,240.8947,325.1926,245.3302,333.67,240.3169" style="stroke:#181818;stroke-width:1;"/><text fill="#000000" font-family="sans-serif" font-size="13" lengthAdjust="spacing" textLength="69.7798" x="166" y="359.3638">&#171;includes&#187;</text></g><!--link Officer to UC_Investigate--><g class="link" data-entity-1="Officer" data-entity-2="UC_Investigate" data-source-line="29" data-uid="lnk24" id="link_Officer_UC_Investigate"><path d="M135.11,83.9869 C222.54,88.7969 384.63,99.2569 522,116.7969 C575.22,123.5869 628.4735,132.767 675.8635,141.687" fill="none" id="Officer-to-UC_Investigate" style="stroke:#181818;stroke-width:1;"/><polygon fill="#181818" points="681.76,142.7969,673.6552,137.2011,676.8463,141.872,672.1754,145.0631,681.76,142.7969" style="stroke:#181818;stroke-width:1;"/></g><!--link Officer to UC_GenerateSAR--><g class="link" data-entity-1="Officer" data-entity-2="UC_GenerateSAR" data-source-line="30" data-uid="lnk25" id="link_Officer_UC_GenerateSAR"><path d="M135.14,66.8669 C145.09,65.1769 155.29,63.7269 165,62.7969 C196.41,59.7969 204.46,61.9169 236,62.7969 C529.72,71.0069 603.75,76.8869 895,115.7969 C947.06,122.7569 999.6968,132.4886 1042.9868,141.1586" fill="none" id="Officer-to-UC_GenerateSAR" style="stroke:#181818;stroke-width:1;"/><polygon fill="#181818" points="1048.87,142.3369,1040.8308,136.6474,1043.9674,141.355,1039.2597,144.4916,1048.87,142.3369" style="stroke:#181818;stroke-width:1;"/></g><!--link Officer to UC_ViewHealth--><g class="link" data-entity-1="Officer" data-entity-2="UC_ViewHealth" data-source-line="31" data-uid="lnk26" id="link_Officer_UC_ViewHealth"><path d="M96.5,118.8769 C126.59,161.8069 181,230.8069 244,270.7969 C261.82,282.1069 276.8946,288.93 297.2046,295.54" fill="none" id="Officer-to-UC_ViewHealth" style="stroke:#181818;stroke-width:1;"/><polygon fill="#181818" points="302.91,297.3969,295.5898,290.8079,298.1555,295.8495,293.1139,298.4152,302.91,297.3969" style="stroke:#181818;stroke-width:1;"/></g><!--link Admin to UC_ManageRules--><g class="link" data-entity-1="Admin" data-entity-2="UC_ManageRules" data-source-line="33" data-uid="lnk27" id="link_Admin_UC_ManageRules"><path d="M93.24,300.1169 C124.89,276.5069 186.2,233.2769 244,206.7969 C265.01,197.1769 282.8636,190.7029 305.0036,184.0529" fill="none" id="Admin-to-UC_ManageRules" style="stroke:#181818;stroke-width:1;"/><polygon fill="#181818" points="310.75,182.3269,300.9798,181.0849,305.9613,183.7652,303.2811,188.7468,310.75,182.3269" style="stroke:#181818;stroke-width:1;"/></g><!--link Admin to UC_UpdateKeywords--><g class="link" data-entity-1="Admin" data-entity-2="UC_UpdateKeywords" data-source-line="34" data-uid="lnk28" id="link_Admin_UC_UpdateKeywords"><path d="M93.03,332.3869 C111.28,344.8169 138.63,361.5969 165,370.7969 C203.9,384.3669 242.406,391.7751 281.736,396.6751" fill="none" id="Admin-to-UC_UpdateKeywords" style="stroke:#181818;stroke-width:1;"/><polygon fill="#181818" points="287.69,397.4169,279.2536,392.3349,282.7284,396.7987,278.2645,400.2735,287.69,397.4169" style="stroke:#181818;stroke-width:1;"/></g><!--link Admin to UC_ViewHealth--><g class="link" data-entity-1="Admin" data-entity-2="UC_ViewHealth" data-source-line="35" data-uid="lnk29" id="link_Admin_UC_ViewHealth"><path d="M93.16,316.7969 C128.82,316.7969 196.48,316.7969 261.98,316.7969" fill="none" id="Admin-to-UC_ViewHealth" style="stroke:#181818;stroke-width:1;"/><polygon fill="#181818" points="267.98,316.7969,258.98,312.7969,262.98,316.7969,258.98,320.7969,267.98,316.7969" style="stroke:#181818;stroke-width:1;"/></g><!--link UC_CreateAlert to UC_Investigate--><g class="link" data-entity-1="UC_CreateAlert" data-entity-2="UC_Investigate" data-source-line="37" data-uid="lnk30" id="link_UC_CreateAlert_UC_Investigate"><path d="M441.73,229.3069 C501.52,216.9069 601.6652,196.136 677.4652,180.406" fill="none" id="UC_CreateAlert-to-UC_Investigate" style="stroke:#181818;stroke-width:1;"/><polygon fill="#181818" points="683.34,179.1869,673.715,177.099,678.4443,180.2028,675.3405,184.9321,683.34,179.1869" style="stroke:#181818;stroke-width:1;"/><text fill="#000000" font-family="sans-serif" font-size="13" lengthAdjust="spacing" textLength="67.958" x="553" y="189.8638">&#171;extends&#187;</text></g><!--link UC_Investigate to UC_GenerateSAR--><g class="link" data-entity-1="UC_Investigate" data-entity-2="UC_GenerateSAR" data-source-line="38" data-uid="lnk31" id="link_UC_Investigate_UC_GenerateSAR"><path d="M894.95,159.0169 C938.3,158.3769 980.2907,157.7556 1020.1807,157.1656" fill="none" id="UC_Investigate-to-UC_GenerateSAR" style="stroke:#181818;stroke-width:1;"/><polygon fill="#181818" points="1026.18,157.0769,1017.1218,153.2104,1021.1805,157.1508,1017.2401,161.2095,1026.18,157.0769" style="stroke:#181818;stroke-width:1;"/><text fill="#000000" font-family="sans-serif" font-size="13" lengthAdjust="spacing" textLength="69.7798" x="926" y="153.8638">&#171;includes&#187;</text></g><!--link UC_Register to UC_Login--><g class="link" data-entity-1="UC_Register" data-entity-2="UC_Login" data-source-line="39" data-uid="lnk32" id="link_UC_Register_UC_Login"><path d="M486.54,745.4269 C538.58,743.4869 598.4042,741.2601 653.7242,739.2001" fill="none" id="UC_Register-to-UC_Login" style="stroke:#181818;stroke-width:1;"/><polygon fill="#181818" points="659.72,738.9769,650.5774,735.3146,654.7235,739.1629,650.8751,743.309,659.72,738.9769" style="stroke:#181818;stroke-width:1;"/><text fill="#000000" font-family="sans-serif" font-size="13" lengthAdjust="spacing" textLength="67.958" x="553" y="736.8638">&#171;extends&#187;</text></g><!--link UC_Login to UC_Notifications--><g class="link" data-entity-1="UC_Login" data-entity-2="UC_Notifications" data-source-line="40" data-uid="lnk33" id="link_UC_Login_UC_Notifications"><path d="M887.83,734.7969 C933.03,734.7969 978.17,734.7969 1020.28,734.7969" fill="none" id="UC_Login-to-UC_Notifications" style="stroke:#181818;stroke-width:1;"/><polygon fill="#181818" points="1026.28,734.7969,1017.28,730.7969,1021.28,734.7969,1017.28,738.7969,1026.28,734.7969" style="stroke:#181818;stroke-width:1;"/><text fill="#000000" font-family="sans-serif" font-size="13" lengthAdjust="spacing" textLength="69.7798" x="926" y="730.8638">&#171;includes&#187;</text></g><!--SRC=[XLHDQzmm4BthLmm-v5AskOUmOBmqATbDmduKUYh2ddK6RCb8SZRRqlzUMR9t9JdGY_7CUszcf7bsWqS3HeAY-ir0HGfBGr8mGwP1o3ThMA7nETYTjS4M5d3G20MtZnNnMl6MCLuQgQ3ejP4jgYcKRTSG5oM-78zKeWAkONmTANdLac13Kovgsp0REle-6VnX0Bt6SkXqA7vjiIOBk2hP9RY1GzT8Ni7JpoAB1MjPat1i_tOYymQRRpby0OL5_hel7lD4ybsG8Mvm_-5qKmXxnONcxXeInKPQZbIZ8E31Y92e4ydp-ZKNl3d_HgUn8Kpn2dMfgFkaJw7G3f8tg8nJ-HXSOdQ8TzI6wW7tfxZ6li0jRBZWjTzYedv0WSfIT_dMgQSOXiGMEpdhvsjj-mPrCDhjeQi6sTK5u2Y9sBEUy7oIglBwKRZhTKSboLx312VQ7uIdH-IDNUkW6yB9f6Fw1lA-8WFM0AduMHgoLkJ3NUlHKoNIEqA4PEmlOvEnOR5OXbQS0Svei-pLLIpssDTbRA4xkBydKJPzXNgvP17ckO5t_ayEFPEmsVH9NaQyU2I50aEaq7K1ZBbFUG82IyH0lEuO2wibqy-dT0V23uEY6ayVWlFHFxckopyaNDwyha-FdDWrSSr_]--></g></svg>